<svg width="200" height="200" xmlns="http://www.w3.org/2000/svg" xmlns:sketch="http://www.bohemiancoding.com/sketch/ns"><title>password</title><g sketch:type="MSLayerGroup" fill="none"><rect fill="#222" sketch:type="MSShapeGroup" width="200" height="200"/><path d="M118 73h2.999c4.413 0 8.001 3.579 8.001 7.994v28.013c0 4.412-3.582 7.994-8.001 7.994h-40.999c-4.413 0-8.001-3.579-8.001-7.994v-28.013c0-4.412 3.582-7.994 8.001-7.994h2.999v-9.495c0-9.665 7.835-17.505 17.5-17.505 9.667 0 17.5 7.837 17.5 17.505v9.495zm-17.5-20c-5.799 0-10.5 4.702-10.5 10.498v9.502h21v-9.502c0-5.798-4.7-10.498-10.5-10.498zm0 0" fill="#B4B4B4" sketch:type="MSShapeGroup"/></g></svg>