<svg class="svgsprite" version="1.1" xmlns="http://www.w3.org/2000/svg"><symbol id="twitter" viewBox="0 0 512 512"><path d="M492 109.5c-17.4 7.7-36 12.9-55.6 15.3 20-12 35.4-31 42.6-53.6-18.7 11.1-39.4 19.2-61.5 23.5C399.8 75.8 374.6 64 346.8 64c-53.5 0-96.8 43.4-96.8 96.9 0 7.6.8 15 2.5 22.1-80.5-4-151.9-42.6-199.6-101.3-8.3 14.3-13.1 31-13.1 48.7 0 33.6 17.2 63.3 43.2 80.7-16-.4-31-4.8-44-12.1v1.2c0 47 33.4 86.1 77.7 95-8.1 2.2-16.7 3.4-25.5 3.4-6.2 0-12.3-.6-18.2-1.8 12.3 38.5 48.1 66.5 90.5 67.3-33.1 26-74.9 41.5-120.3 41.5-7.8 0-15.5-.5-23.1-1.4C62.8 432 113.7 448 168.3 448 346.6 448 444 300.3 444 172.2c0-4.2-.1-8.4-.3-12.5C462.6 146 479 129 492 109.5z"/></symbol><symbol id="facebook" viewBox="0 0 512 512"><path d="M288 192v-38.1c0-17.2 3.8-25.9 30.5-25.9H352V64h-55.9c-68.5 0-91.1 31.4-91.1 85.3V192h-45v64h45v192h83V256h56.4l7.6-64h-64z"/></symbol><symbol id="dropbox" viewBox="0 0 512 512"><path d="M177 77L64 150.9l78.1 62.7L256 143.1zM64 276.3l113 73.9 79-66.1-113.9-70.5zM256 284.1l79 66.1 113-73.9-78.1-62.7zM448 150.9L335 77l-79 66.1 113.9 70.5zM256.2 298.3l-79.8 66-34.4-22.2V367l114 68 114-68v-24.9l-34.2 22.2z"/></symbol></svg>